<svg xmlns="http://www.w3.org/2000/svg" xmlns:xlink="http://www.w3.org/1999/xlink" width="500" zoomAndPan="magnify" viewBox="0 0 375 374.999991" height="500" preserveAspectRatio="xMidYMid meet" version="1.0"><defs><clipPath id="63d9ee08d1"><path d="M 24 38.464844 L 351 38.464844 L 351 336.214844 L 24 336.214844 Z M 24 38.464844 " clip-rule="nonzero"/></clipPath><clipPath id="f0d00bfa93"><path d="M 36 50.464844 L 363 50.464844 L 363 348.214844 L 36 348.214844 Z M 36 50.464844 " clip-rule="nonzero"/></clipPath></defs><g clip-path="url(#63d9ee08d1)"><path fill="#071d5c" d="M 57.507812 38.464844 C 39.242188 38.464844 24.390625 53.320312 24.390625 71.585938 L 24.390625 303.414062 C 24.390625 321.679688 39.242188 336.53125 57.507812 336.53125 L 289.335938 336.53125 C 307.601562 336.53125 322.457031 321.679688 322.457031 303.414062 L 322.457031 141.832031 L 289.335938 174.949219 L 289.371094 303.414062 L 57.507812 303.414062 L 57.507812 71.585938 L 252.207031 71.585938 L 285.328125 38.464844 Z M 327.308594 43.316406 L 156.863281 213.761719 L 102.335938 159.230469 L 78.917969 182.648438 L 156.863281 260.59375 L 350.722656 66.734375 Z M 327.308594 43.316406 " fill-opacity="1" fill-rule="nonzero"/></g><g clip-path="url(#f0d00bfa93)"><path fill="#f4ea1c" d="M 69.507812 50.464844 C 51.242188 50.464844 36.390625 65.320312 36.390625 83.585938 L 36.390625 315.414062 C 36.390625 333.679688 51.242188 348.53125 69.507812 348.53125 L 301.335938 348.53125 C 319.601562 348.53125 334.457031 333.679688 334.457031 315.414062 L 334.457031 153.832031 L 301.335938 186.949219 L 301.371094 315.414062 L 69.507812 315.414062 L 69.507812 83.585938 L 264.207031 83.585938 L 297.328125 50.464844 Z M 339.308594 55.316406 L 168.863281 225.761719 L 114.335938 171.230469 L 90.917969 194.648438 L 168.863281 272.59375 L 362.722656 78.734375 Z M 339.308594 55.316406 " fill-opacity="1" fill-rule="nonzero"/></g></svg>